# xmcd
#
# Track frame offsets:
# 150
# 13123
# 24907
# 41673
# 54102
# 71329
# 86971
# 101802
# 114513
# 132328
# 155344
# 175171
# 194476
#
# Disc length: 2865 seconds
#
# Revision: 1
# Processed by: cddbd v1.4PL0 Copyright (c) Steve Scherf et al.
# Submitted via: CedeCatalogueitor 2.5 http://usuarios.lycos.es/kakasboy
#
DISCID=a80b2f0d
DTITLE=Stone Temple Pilots - Shangri- La Dee Da
DYEAR=1900
DGENRE=
TTITLE0=Dumb Love
TTITLE1=Days Of The Weer
TTITLE2=Coma
TTITLE3=Hollywood Beach
TTITLE4=Wonderfli
TTITLE5=Black Again
TTITLE6=Hello It's Late
TTITLE7=Too Cool Queensi
TTITLE8=Regeneration
TTITLE9=Be Polar Bear
TTITLE10=Transmison Front A Lonely Room
TTITLE11=A Song For Sleeping
TTITLE12=Long Way Home
EXTD=
EXTT0=
EXTT1=
EXTT2=
EXTT3=
EXTT4=
EXTT5=
EXTT6=
EXTT7=
EXTT8=
EXTT9=
EXTT10=
EXTT11=
EXTT12=
PLAYORDER=
